<?xml version="1.0" encoding="utf-8"?>
<!-- Generator: Adobe Illustrator 24.1.0, SVG Export Plug-In . SVG Version: 6.00 Build 0)  -->
<svg version="1.1" xmlns="http://www.w3.org/2000/svg" xmlns:xlink="http://www.w3.org/1999/xlink" x="0px" y="0px"
	 viewBox="0 0 72 72" style="enable-background:new 0 0 72 72;" xml:space="preserve">
<style type="text/css">
	.st0{fill:#D62828;}
</style>
<g id="Layer_1">
</g>
<g id="Layer_2">
	<g>
		<path class="st0" d="M19.3,17.6c0.7-0.4,1.5-0.5,2.3-0.5c1,0,2,0.3,2.8,0.8c0.9,0.5,1.5,1.3,2,2.3c0.5,1,0.7,2.1,0.7,3.4
			c0,1.3-0.2,2.5-0.7,3.5c-0.5,1-1.2,1.8-2,2.3c-0.9,0.5-1.8,0.8-2.8,0.8c-0.9,0-1.7-0.2-2.3-0.5c-0.7-0.4-1.2-0.8-1.6-1.4V36h-3.9
			V17.3h3.9v1.8C18.1,18.5,18.6,18,19.3,17.6z M22.5,21.3c-0.5-0.6-1.2-0.8-2-0.8c-0.8,0-1.4,0.3-2,0.8c-0.5,0.6-0.8,1.3-0.8,2.3
			c0,1,0.3,1.7,0.8,2.3c0.5,0.6,1.2,0.8,2,0.8s1.4-0.3,2-0.9c0.5-0.6,0.8-1.3,0.8-2.3C23.3,22.6,23,21.9,22.5,21.3z"/>
		<path class="st0" d="M29.3,20.2c0.5-1,1.2-1.7,2-2.3c0.9-0.5,1.8-0.8,2.8-0.8c0.9,0,1.7,0.2,2.4,0.5c0.7,0.4,1.2,0.8,1.6,1.4v-1.8
			h3.9V30H38v-1.8c-0.4,0.6-0.9,1.1-1.6,1.4c-0.7,0.4-1.5,0.5-2.4,0.5c-1,0-2-0.3-2.8-0.8c-0.9-0.5-1.5-1.3-2-2.3
			c-0.5-1-0.7-2.1-0.7-3.5C28.5,22.3,28.8,21.1,29.3,20.2z M37.2,21.3c-0.5-0.6-1.2-0.8-2-0.8c-0.8,0-1.4,0.3-2,0.8
			c-0.5,0.6-0.8,1.3-0.8,2.3c0,1,0.3,1.7,0.8,2.3c0.5,0.6,1.2,0.9,2,0.9c0.8,0,1.4-0.3,2-0.8c0.5-0.6,0.8-1.3,0.8-2.3
			C38,22.7,37.8,21.9,37.2,21.3z"/>
		<path class="st0" d="M50.2,17.6c0.7-0.4,1.5-0.5,2.3-0.5c1,0,2,0.3,2.8,0.8c0.9,0.5,1.5,1.3,2,2.3c0.5,1,0.7,2.1,0.7,3.4
			c0,1.3-0.2,2.5-0.7,3.5c-0.5,1-1.2,1.8-2,2.3c-0.9,0.5-1.8,0.8-2.8,0.8c-0.9,0-1.7-0.2-2.3-0.5c-0.7-0.4-1.2-0.8-1.6-1.4V36h-3.9
			V17.3h3.9v1.8C49,18.5,49.6,18,50.2,17.6z M53.4,21.3c-0.5-0.6-1.2-0.8-2-0.8c-0.8,0-1.4,0.3-2,0.8c-0.5,0.6-0.8,1.3-0.8,2.3
			c0,1,0.3,1.7,0.8,2.3c0.5,0.6,1.2,0.8,2,0.8s1.4-0.3,2-0.9c0.5-0.6,0.8-1.3,0.8-2.3C54.2,22.6,54,21.9,53.4,21.3z"/>
		<path class="st0" d="M19.8,42.5c0.7-0.4,1.4-0.6,2.3-0.6V46H21c-1,0-1.7,0.2-2.2,0.6c-0.5,0.4-0.7,1.2-0.7,2.2v5.9h-3.9V42h3.9
			v2.1C18.6,43.4,19.1,42.9,19.8,42.5z"/>
		<path class="st0" d="M24.3,40.1c-0.4-0.4-0.6-0.9-0.6-1.5c0-0.6,0.2-1.1,0.6-1.5c0.4-0.4,1-0.6,1.7-0.6c0.7,0,1.2,0.2,1.7,0.6
			c0.4,0.4,0.6,0.9,0.6,1.5c0,0.6-0.2,1.1-0.6,1.5c-0.4,0.4-1,0.6-1.7,0.6C25.2,40.7,24.7,40.5,24.3,40.1z"/>
		<rect x="24" y="42" class="st0" width="3.9" height="12.7"/>
		<path class="st0" d="M38.5,54.7l-3.9-5.3v5.3h-3.9V37.9h3.9v9.3l3.9-5.2h4.8L38,48.4l5.3,6.3H38.5z"/>
		<path class="st0" d="M44.7,44.9c0.5-1,1.2-1.7,2-2.3c0.9-0.5,1.8-0.8,2.8-0.8c0.9,0,1.7,0.2,2.4,0.5c0.7,0.4,1.2,0.8,1.6,1.4V42
			h3.9v12.7h-3.9v-1.8c-0.4,0.6-0.9,1.1-1.6,1.4c-0.7,0.4-1.5,0.5-2.4,0.5c-1,0-2-0.3-2.8-0.8c-0.9-0.5-1.5-1.3-2-2.3
			c-0.5-1-0.7-2.1-0.7-3.5C44,47,44.3,45.9,44.7,44.9z M52.7,46.1c-0.5-0.6-1.2-0.8-2-0.8s-1.4,0.3-2,0.8c-0.5,0.6-0.8,1.3-0.8,2.3
			c0,1,0.3,1.7,0.8,2.3c0.5,0.6,1.2,0.9,2,0.9s1.4-0.3,2-0.8c0.5-0.6,0.8-1.3,0.8-2.3C53.5,47.4,53.3,46.6,52.7,46.1z"/>
	</g>
</g>
</svg>
