<?xml version="1.0" encoding="utf-8"?>
<!-- Generator: Adobe Illustrator 24.1.0, SVG Export Plug-In . SVG Version: 6.00 Build 0)  -->
<svg version="1.1" xmlns="http://www.w3.org/2000/svg" xmlns:xlink="http://www.w3.org/1999/xlink" x="0px" y="0px"
	 viewBox="0 0 72 72" style="enable-background:new 0 0 72 72;" xml:space="preserve">
<style type="text/css">
	.st0{fill:#D62828;}
</style>
<g id="Layer_1">
</g>
<g id="Layer_2">
	<g>
		<path class="st0" d="M10.3,36c0.6,0,0.9-0.2,1.1-0.4c0.2-0.2,0.3-0.7,0.3-1.4c0-0.4,0.1-0.9,0.1-1.4c0-0.5,0-1,0.1-1.6
			c0-0.5,0-1,0-1.5v-8.3c0-0.7-0.1-1.2-0.3-1.4c-0.2-0.3-0.6-0.4-1.2-0.4H9.9l-0.1-0.2l0.2-1.9c1-0.1,2-0.3,3-0.5
			c1-0.2,2-0.4,3.2-0.6l0.3,0.3c-0.2,0.9-0.3,1.6-0.3,2l0.1,0.1c0.8-0.8,1.4-1.4,1.8-1.7c0.5-0.4,0.8-0.6,1-0.6
			c1.2,0,2.3,0.3,3.2,0.9c0.9,0.6,1.6,1.4,2.1,2.4c0.5,1,0.8,2.2,0.8,3.6c0,1.3-0.2,2.4-0.6,3.3c-0.4,1-1,1.8-1.7,2.5
			c-0.7,0.7-1.6,1.2-2.6,1.6c-1,0.4-2.2,0.5-3.4,0.5c-0.1,0-0.2,0-0.4,0c-0.1,0-0.3,0-0.5,0c0,0.4,0,0.8,0,1.3s0,0.9,0,1.4
			c0,0.7,0.1,1.2,0.1,1.5s0.4,0.4,0.8,0.4c0.3,0,0.5,0,0.8,0c0.3,0,0.5,0,0.5,0l0.1,0.1L18,38.2c-0.1,0-0.3,0-0.6,0
			c-0.3,0-0.7,0-1.1,0c-0.4,0-0.8,0-1.3,0s-0.8,0-1.1,0c-0.6,0-1.1,0-1.7,0c-0.6,0-1.3,0.1-2.2,0.2L10.3,36z M18.1,28.5
			c0.8,0,1.4-0.3,1.8-1c0.4-0.6,0.6-1.6,0.6-2.8c0-1-0.1-1.8-0.3-2.5c-0.2-0.7-0.5-1.2-0.9-1.5c-0.4-0.4-0.8-0.5-1.4-0.5
			c-0.3,0-0.5,0.1-0.8,0.2c-0.3,0.1-0.6,0.3-0.9,0.4c0,0.8-0.1,1.6-0.1,2.5c0,0.9-0.1,1.7-0.1,2.6c0,0.8,0,1.6,0,2.3
			c0.1,0.1,0.4,0.1,0.7,0.2C17.2,28.4,17.6,28.5,18.1,28.5z"/>
		<path class="st0" d="M37.5,31.5c-0.9,0-1.7-0.2-2.2-0.6c-0.6-0.4-0.9-1-1-1.7L34,29.1c-0.4,0.4-0.8,0.7-1.2,1.1
			c-0.4,0.4-0.8,0.6-1.2,0.9c-0.4,0.2-0.7,0.3-1,0.3c-0.8,0-1.5-0.2-2.2-0.6c-0.7-0.4-1.2-1-1.6-1.7c-0.4-0.7-0.6-1.5-0.6-2.4
			c0-0.7,0.2-1.2,0.5-1.7c0.4-0.5,0.8-0.8,1.3-0.9l5.9-1.3v-0.4c0-0.8-0.2-1.4-0.7-1.8c-0.5-0.4-1.1-0.7-1.9-0.7
			c-0.6,0-1.2,0.1-1.8,0.4c-0.7,0.3-1.2,0.6-1.7,0.9l-0.3-0.2L27.1,19c0.7-0.4,1.4-0.7,2.1-1.1c0.8-0.4,1.5-0.7,2.2-0.9
			c0.7-0.3,1.2-0.4,1.6-0.4c1.4,0,2.4,0.2,3.2,0.6c0.8,0.4,1.4,0.9,1.7,1.6c0.4,0.6,0.5,1.3,0.5,2.1c0,0.3,0,0.7-0.1,1.2
			c-0.1,0.5-0.1,1.1-0.2,1.7C38.1,24.4,38,25,38,25.5c-0.1,0.5-0.1,1-0.1,1.2c0,0.4,0.1,0.6,0.3,0.8c0.2,0.2,0.4,0.3,0.7,0.3
			c0.2,0,0.5-0.1,0.7-0.1c0.3-0.1,0.4-0.2,0.6-0.3l0.5,0.7c-0.3,0.4-0.5,0.9-0.9,1.4s-0.7,0.9-1.1,1.3
			C38.2,31.1,37.9,31.4,37.5,31.5z M32.1,28c0.3,0,0.6-0.1,0.9-0.2s0.7-0.3,1-0.4l0.1-2.7l-2.8,0.7c-0.5,0.1-0.7,0.4-0.7,0.9
			c0,0.5,0.1,0.9,0.4,1.3C31.3,27.8,31.7,28,32.1,28z"/>
		<path class="st0" d="M41.6,36c0.6,0,0.9-0.2,1.1-0.4c0.2-0.2,0.3-0.7,0.3-1.4c0-0.4,0.1-0.9,0.1-1.4c0-0.5,0-1,0.1-1.6
			c0-0.5,0-1,0-1.5v-8.3c0-0.7-0.1-1.2-0.3-1.4c-0.2-0.3-0.6-0.4-1.2-0.4h-0.4l-0.1-0.2l0.2-1.9c1-0.1,2-0.3,3-0.5
			c1-0.2,2-0.4,3.2-0.6l0.3,0.3c-0.2,0.9-0.3,1.6-0.3,2l0.1,0.1c0.8-0.8,1.4-1.4,1.8-1.7c0.5-0.4,0.8-0.6,1-0.6
			c1.2,0,2.3,0.3,3.2,0.9c0.9,0.6,1.6,1.4,2.1,2.4c0.5,1,0.8,2.2,0.8,3.6c0,1.3-0.2,2.4-0.6,3.3c-0.4,1-1,1.8-1.7,2.5
			c-0.7,0.7-1.6,1.2-2.6,1.6c-1,0.4-2.2,0.5-3.4,0.5c-0.1,0-0.2,0-0.4,0c-0.1,0-0.3,0-0.5,0c0,0.4,0,0.8,0,1.3s0,0.9,0,1.4
			c0,0.7,0.1,1.2,0.1,1.5c0.1,0.3,0.4,0.4,0.8,0.4c0.3,0,0.5,0,0.8,0c0.3,0,0.5,0,0.5,0l0.1,0.1l-0.4,2.2c-0.1,0-0.3,0-0.6,0
			c-0.3,0-0.7,0-1.1,0c-0.4,0-0.8,0-1.3,0s-0.8,0-1.1,0c-0.6,0-1.1,0-1.7,0c-0.6,0-1.3,0.1-2.2,0.2L41.6,36z M49.4,28.5
			c0.8,0,1.4-0.3,1.8-1s0.6-1.6,0.6-2.8c0-1-0.1-1.8-0.3-2.5c-0.2-0.7-0.5-1.2-0.9-1.5c-0.4-0.4-0.8-0.5-1.4-0.5
			c-0.3,0-0.5,0.1-0.8,0.2c-0.3,0.1-0.6,0.3-0.9,0.4c0,0.8-0.1,1.6-0.1,2.5c0,0.9-0.1,1.7-0.1,2.6c0,0.8,0,1.6,0,2.3
			c0.1,0.1,0.4,0.1,0.7,0.2C48.6,28.4,49,28.5,49.4,28.5z"/>
		<path class="st0" d="M10.9,52.9c0.6,0,1-0.2,1.2-0.5c0.2-0.3,0.3-0.7,0.3-1.4v-5.7c0-0.7-0.1-1.2-0.3-1.4
			c-0.2-0.3-0.6-0.4-1.1-0.4c-0.1,0-0.3,0-0.6,0l-0.2-0.2l0.2-1.9c1-0.2,2-0.3,2.9-0.5c1-0.2,2-0.4,3.3-0.6l0.3,0.3
			c-0.1,0.6-0.2,1-0.2,1.4c-0.1,0.4-0.1,0.8-0.1,1.3l0.2,0.1c0.7-1,1.4-1.7,2.1-2.2s1.5-0.7,2.2-0.7c0.3,0,0.7,0,1.1,0.1l0.1,0.3
			c-0.1,0.8-0.2,1.4-0.3,2c-0.1,0.6-0.2,1.3-0.2,2c-0.1,0.7-0.1,1.4-0.2,2.1l-2.3,0.2c0-1.1-0.1-1.7-0.2-2.1
			c-0.1-0.3-0.4-0.5-0.7-0.5c-0.3,0-0.5,0.1-0.8,0.3c-0.3,0.2-0.6,0.4-0.8,0.7c0,0.7-0.1,1.3-0.1,1.9c0,0.5-0.1,1.1-0.1,1.6
			c0,0.6-0.1,1-0.1,1.4c0,0.4,0,0.7,0,0.8c0,0.5,0.1,0.8,0.3,0.9c0.2,0.2,0.4,0.3,0.8,0.3c0.3,0,0.8,0,1.6-0.1l0.1,0.2l-0.4,2.4
			c-0.6,0-1.1-0.1-1.6-0.1c-0.5,0-0.9,0-1.4-0.1c-0.5,0-1,0-1.3,0c-0.6,0-1.3,0-1.9,0c-0.6,0-1.4,0.1-2.2,0.1L10.9,52.9z"/>
		<path class="st0" d="M23.6,53c0.6-0.1,1-0.3,1.3-0.6c0.3-0.3,0.4-0.7,0.4-1.3v-5.9c0-0.7-0.1-1.1-0.3-1.4
			c-0.2-0.3-0.6-0.4-1.1-0.4c-0.1,0-0.3,0-0.7,0.1l0.2-2.1c0.8-0.1,1.6-0.2,2.3-0.3c0.8-0.1,1.5-0.2,2.1-0.4
			c0.6-0.1,1.3-0.2,2.1-0.4l0.3,0.6c-0.1,0.2-0.2,0.6-0.3,1.2c-0.1,0.6-0.2,1.4-0.2,2.3c-0.1,0.9-0.1,2-0.1,3.2
			c0,1.2-0.1,2.5-0.1,3.9c0,0.4,0.1,0.7,0.2,0.9c0.1,0.2,0.4,0.3,0.7,0.3c0.2,0,0.4,0,0.8-0.1l0.1,0.1L31,55.1c-0.5,0-1,0-1.4-0.1
			c-0.4,0-0.8,0-1.2-0.1c-0.4,0-0.8,0-1.1,0c-0.5,0-1.1,0-1.7,0.1c-0.6,0.1-1.4,0.1-2.3,0.3L23.6,53z M27.1,38.4
			c-0.8,0-1.4-0.2-1.8-0.7c-0.4-0.5-0.6-1-0.6-1.8c0-0.8,0.3-1.5,0.8-2c0.5-0.5,1.2-0.8,2-0.8c0.8,0,1.4,0.2,1.8,0.7
			c0.4,0.5,0.6,1.1,0.6,1.8c0,0.8-0.3,1.5-0.7,2C28.6,38.2,28,38.4,27.1,38.4z"/>
		<path class="st0" d="M32.4,52.9c0.4-0.1,0.7-0.2,0.9-0.3c0.2-0.1,0.3-0.4,0.4-0.6s0.1-0.6,0.1-1.1V37.3c0-1-0.2-1.5-0.7-1.6
			c-0.2,0-0.4-0.1-0.7-0.1c-0.3,0-0.5,0-0.7,0c0-0.1,0-0.1-0.1-0.2c0-0.1,0-0.1-0.1-0.1l0.2-1.8c0.8-0.1,1.6-0.2,2.4-0.3
			s1.6-0.2,2.3-0.3c0.7-0.1,1.5-0.2,2.4-0.4l0.3,0.7c-0.1,0.1-0.2,0.5-0.3,1.2c-0.1,0.6-0.2,1.5-0.3,2.6c-0.1,1.1-0.2,2.4-0.2,3.9
			c-0.1,1.5-0.1,3.2-0.1,5c0,1.8,0,3.8,0,5.9c0,0.5,0.1,0.8,0.2,0.9c0.1,0.2,0.3,0.3,0.6,0.3c0.1,0,0.3,0,0.7,0l0.1,0.2l-0.4,2.1
			c-0.5,0-1-0.1-1.3-0.1c-0.4,0-0.8,0-1.2-0.1c-0.4,0-0.8,0-1.1,0c-0.6,0-1.1,0-1.6,0s-1.2,0.1-1.9,0.1L32.4,52.9z M38.3,47.9
			l0.1-0.8l2.6-2.7c0.2-0.3,0.4-0.4,0.5-0.6c0.1-0.1,0.1-0.3,0.1-0.4c0-0.2-0.1-0.4-0.4-0.5s-0.6-0.1-1.2-0.1l-0.1-0.2l0.3-1.8
			c0.9,0,1.6,0,2.2,0.1c0.6,0,1.2,0,1.8,0c0.5,0,1,0,1.6,0c0.5,0,1.2-0.1,1.9-0.1l0.1,0.2L47.4,43c-0.6,0.3-1.2,0.6-1.7,1
			c-0.6,0.5-1.1,0.9-1.6,1.4c-0.5,0.5-1,1-1.5,1.5l2.3,3.9c0.4,0.7,0.8,1.2,1.3,1.5c0.5,0.4,1,0.6,1.5,0.6l0.2,0.3l-0.3,1.8
			c-0.5,0.1-0.9,0.1-1.2,0.2c-0.3,0-0.7,0.1-1,0.1c-0.3,0-0.6,0-0.9,0c-0.3,0-0.5,0-0.6-0.1c-0.6-0.1-1.1-0.3-1.5-0.7
			c-0.4-0.4-0.8-0.9-1.3-1.7L38.3,47.9z"/>
		<path class="st0" d="M59.1,55.3c-0.9,0-1.7-0.2-2.2-0.6c-0.6-0.4-0.9-1-1-1.7l-0.3-0.1c-0.4,0.4-0.8,0.7-1.2,1.1
			c-0.4,0.4-0.8,0.6-1.2,0.9c-0.4,0.2-0.7,0.3-1,0.3c-0.8,0-1.5-0.2-2.2-0.6c-0.7-0.4-1.2-1-1.6-1.7c-0.4-0.7-0.6-1.5-0.6-2.4
			c0-0.7,0.2-1.2,0.5-1.7c0.4-0.5,0.8-0.8,1.3-0.9l5.9-1.3v-0.4c0-0.8-0.2-1.4-0.7-1.8c-0.5-0.4-1.1-0.7-1.9-0.7
			c-0.6,0-1.2,0.1-1.8,0.4c-0.7,0.3-1.2,0.6-1.7,0.9L49.3,45l-0.6-2.1c0.7-0.4,1.4-0.7,2.1-1.1c0.8-0.4,1.5-0.7,2.2-0.9
			c0.7-0.3,1.2-0.4,1.6-0.4c1.4,0,2.4,0.2,3.2,0.6c0.8,0.4,1.4,0.9,1.7,1.6c0.4,0.6,0.5,1.3,0.5,2.1c0,0.3,0,0.7-0.1,1.2
			c-0.1,0.5-0.1,1.1-0.2,1.7s-0.2,1.2-0.2,1.7c-0.1,0.5-0.1,1-0.1,1.2c0,0.4,0.1,0.6,0.3,0.8s0.4,0.3,0.7,0.3c0.2,0,0.5-0.1,0.7-0.1
			c0.3-0.1,0.4-0.2,0.6-0.3l0.5,0.7c-0.3,0.4-0.5,0.9-0.9,1.4c-0.4,0.5-0.7,0.9-1.1,1.3C59.8,55,59.5,55.2,59.1,55.3z M53.7,51.9
			c0.3,0,0.6-0.1,0.9-0.2c0.4-0.1,0.7-0.3,1-0.4l0.1-2.7l-2.8,0.7c-0.5,0.1-0.7,0.4-0.7,0.9c0,0.5,0.1,0.9,0.4,1.3
			C52.9,51.7,53.3,51.9,53.7,51.9z"/>
	</g>
</g>
</svg>
