<?xml version="1.0" encoding="utf-8"?>
<!-- Generator: Adobe Illustrator 24.1.0, SVG Export Plug-In . SVG Version: 6.00 Build 0)  -->
<svg version="1.1" id="Layer_1" xmlns="http://www.w3.org/2000/svg" xmlns:xlink="http://www.w3.org/1999/xlink" x="0px" y="0px"
	 viewBox="0 0 10 10" style="enable-background:new 0 0 10 10;" xml:space="preserve">
<g id="Layer_1_1_">
</g>
<g>
	<path d="M3.8,7.8c-0.1,0-0.3,0-0.4,0c-0.1,0-0.3-0.1-0.3-0.1C2.8,7.4,2.6,7.2,2.3,6.9C2.3,6.8,2.2,6.7,2.2,6.6c0-0.1,0-0.3,0-0.4
		c-0.3,0-0.5,0.1-0.8,0.1C1,6.3,0.7,6.4,0.3,6.4C0.1,6.4,0,6.3,0,6.1c0.1-0.6,0.3-1.3,0.8-1.8c0.5-0.6,1.1-0.8,1.8-0.9
		c0.2,0,0.3,0,0.5,0c0,0,0.1,0,0.1-0.1c1-1.4,2.5-2.3,4.1-2.9C7.8,0.2,8.3,0.1,8.9,0c0.3,0,0.6,0,0.9,0c0.1,0,0.1,0.1,0.2,0.2
		c0.1,0.5,0,1-0.1,1.4C9.5,3.3,8.7,4.8,7.5,6.1C7.2,6.3,6.9,6.6,6.6,6.8C6.6,6.9,6.5,6.9,6.5,7c0,0.7-0.1,1.3-0.5,1.9
		c-0.4,0.5-0.9,0.8-1.5,1C4.3,9.9,4.1,9.9,3.9,10c-0.2,0-0.3-0.1-0.3-0.2c0-0.4,0.1-0.8,0.1-1.2C3.7,8.3,3.8,8.1,3.8,7.8z M6.6,2.3
		C6,2.3,5.5,2.8,5.5,3.4C5.5,4,6,4.5,6.6,4.5c0.6,0,1.1-0.5,1.1-1.1C7.7,2.8,7.2,2.3,6.6,2.3z"/>
	<path d="M0.3,9.7c0-0.2,0-0.4,0.1-0.7c0-0.4,0.1-0.9,0.2-1.3c0.2-0.5,0.5-0.8,1-0.9c0,0,0.1,0,0.1,0c0,0,0,0.1,0,0.1
		C1.7,7.2,1.6,7.4,1.6,7.6c0,0.5,0.4,0.9,0.9,0.8c0.2,0,0.4-0.1,0.5-0.2c0,0,0.1,0,0.1,0c0,0,0.1,0.1,0.1,0.1C3.1,8.7,3,9.1,2.6,9.2
		C2.2,9.4,1.8,9.5,1.4,9.6C1.1,9.6,0.7,9.6,0.3,9.7z"/>
</g>
</svg>
