<?xml version="1.0" encoding="utf-8"?>
<!-- Generator: Adobe Illustrator 24.1.0, SVG Export Plug-In . SVG Version: 6.00 Build 0)  -->
<svg version="1.1" id="Layer_1" xmlns="http://www.w3.org/2000/svg" xmlns:xlink="http://www.w3.org/1999/xlink" x="0px" y="0px"
	 viewBox="0 0 10 10" style="enable-background:new 0 0 10 10;" xml:space="preserve">
<g id="Layer_1_1_">
</g>
<g>
	<g>
		<path d="M2,10c0-0.1,0-0.2,0.1-0.4C2.2,9.1,2.4,8.5,2.7,8C2.8,7.8,3,7.5,3.3,7.4c1.2-0.9,2.1-2.1,2.8-3.4c0.2-0.4,0.3-0.8,0.5-1.2
			c0,0,0-0.1,0-0.1C6.5,2.9,6.4,3.1,6.3,3.3C5.9,4.1,5.4,4.8,4.8,5.5C4.3,6.1,3.6,6.7,3,7.2C2.6,7.4,2.4,7.7,2.1,8.1
			c0,0,0,0-0.1,0.1C2,8.1,2,8,1.9,8C1.6,7.2,1.4,6.4,1.4,5.5c0.1-0.8,0.3-1.4,0.8-2.1c0.5-0.7,1.2-1.2,2-1.6
			c0.5-0.2,0.9-0.5,1.4-0.6c0.7-0.3,1.2-0.6,1.7-1.1c0,0,0,0,0.1-0.1c0,0,0,0,0,0c0.1,0.1,0.2,0.3,0.2,0.4C8.2,1.2,8.4,2,8.5,2.8
			c0.1,0.9,0.1,1.7-0.2,2.6C7.9,6.6,7.1,7.5,5.9,8.1c-0.5,0.2-1,0.4-1.5,0.4c-0.4,0-0.8,0-1.2,0c-0.1,0-0.1,0-0.1,0.1
			C2.9,8.9,2.7,9.3,2.7,9.7c0,0.1-0.1,0.1-0.1,0.2C2.4,9.9,2.2,10,2,10C2,10,2,10,2,10z"/>
	</g>
</g>
</svg>
