<?xml version="1.0" encoding="utf-8"?>
<!-- Generator: Adobe Illustrator 24.1.0, SVG Export Plug-In . SVG Version: 6.00 Build 0)  -->
<svg version="1.1" xmlns="http://www.w3.org/2000/svg" xmlns:xlink="http://www.w3.org/1999/xlink" x="0px" y="0px"
	 viewBox="0 0 615 180" style="enable-background:new 0 0 615 180;" xml:space="preserve">
<style type="text/css">
	.st0{fill:#D62828;}
</style>
<g id="Layer_1">
</g>
<g id="Layer_2">
	<path class="st0" d="M46.1,41.5c4.5-2.4,9.7-3.7,15.7-3.7c7,0,13.4,1.8,19.1,5.3c5.7,3.6,10.2,8.6,13.5,15.3c3.3,6.6,5,14.3,5,23
		c0,8.7-1.7,16.5-5,23.1c-3.3,6.7-7.8,11.8-13.5,15.4c-5.7,3.6-12.1,5.4-19.1,5.4c-5.9,0-11.1-1.2-15.6-3.7
		c-4.5-2.4-8.1-5.6-10.6-9.5v52.5H9.5V39h26.1v12.1C38.1,47.1,41.6,43.9,46.1,41.5z M67.4,66.1c-3.6-3.7-8.1-5.6-13.4-5.6
		c-5.2,0-9.6,1.9-13.2,5.6c-3.6,3.8-5.4,8.9-5.4,15.4c0,6.5,1.8,11.6,5.4,15.4c3.6,3.8,8,5.6,13.2,5.6s9.6-1.9,13.3-5.7
		c3.7-3.8,5.5-9,5.5-15.5C72.8,74.9,71,69.8,67.4,66.1z"/>
	<path class="st0" d="M112.8,58.4c3.3-6.6,7.8-11.7,13.5-15.3c5.7-3.6,12.1-5.3,19.1-5.3c6,0,11.3,1.2,15.8,3.7
		c4.5,2.4,8,5.6,10.5,9.6V39h26.1v85.1h-26.1v-12.1c-2.5,4-6.1,7.2-10.6,9.6c-4.5,2.4-9.8,3.7-15.8,3.7c-6.9,0-13.2-1.8-18.9-5.4
		c-5.7-3.6-10.2-8.7-13.5-15.4c-3.3-6.7-5-14.4-5-23.1C107.9,72.7,109.5,65,112.8,58.4z M166.2,66.2c-3.6-3.8-8-5.6-13.2-5.6
		c-5.2,0-9.6,1.9-13.2,5.6c-3.6,3.7-5.4,8.8-5.4,15.3c0,6.5,1.8,11.7,5.4,15.5c3.6,3.8,8,5.7,13.2,5.7c5.2,0,9.6-1.9,13.2-5.6
		c3.6-3.8,5.4-8.9,5.4-15.4C171.6,75.1,169.8,70,166.2,66.2z"/>
	<path class="st0" d="M253.3,41.5c4.5-2.4,9.7-3.7,15.7-3.7c7,0,13.4,1.8,19.1,5.3c5.7,3.6,10.2,8.6,13.5,15.3c3.3,6.6,5,14.3,5,23
		c0,8.7-1.7,16.5-5,23.1c-3.3,6.7-7.8,11.8-13.5,15.4c-5.7,3.6-12.1,5.4-19.1,5.4c-5.9,0-11.1-1.2-15.6-3.7
		c-4.5-2.4-8.1-5.6-10.6-9.5v52.5h-26.1V39h26.1v12.1C245.3,47.1,248.8,43.9,253.3,41.5z M274.6,66.1c-3.6-3.7-8.1-5.6-13.4-5.6
		c-5.2,0-9.6,1.9-13.2,5.6c-3.6,3.8-5.4,8.9-5.4,15.4c0,6.5,1.8,11.6,5.4,15.4c3.6,3.8,8,5.6,13.2,5.6s9.6-1.9,13.3-5.7
		c3.7-3.8,5.5-9,5.5-15.5C280,74.9,278.2,69.8,274.6,66.1z"/>
	<path class="st0" d="M357.8,42.2c4.6-2.7,9.7-4,15.3-4v27.6h-7.2c-6.5,0-11.4,1.4-14.6,4.2c-3.3,2.8-4.9,7.7-4.9,14.7v39.5h-26.1
		V39h26.1v14.2C349.4,48.5,353.2,44.9,357.8,42.2z"/>
	<path class="st0" d="M387.5,26.1c-2.9-2.7-4.3-6-4.3-10c0-4.1,1.4-7.5,4.3-10.1c2.9-2.7,6.6-4,11.2-4c4.5,0,8.2,1.3,11.1,4
		c2.9,2.7,4.3,6.1,4.3,10.1c0,4-1.4,7.3-4.3,10c-2.9,2.7-6.6,4-11.1,4C394.1,30.2,390.4,28.8,387.5,26.1z"/>
	<rect x="385.6" y="39" class="st0" width="26.1" height="85.1"/>
	<path class="st0" d="M482.6,124.2l-25.9-35.7v35.7h-26.1V11.3h26.1v62.4L482.4,39h32.2l-35.4,42.7l35.7,42.4H482.6z"/>
	<path class="st0" d="M524.6,58.4c3.3-6.6,7.8-11.7,13.5-15.3c5.7-3.6,12.1-5.3,19.1-5.3c6,0,11.3,1.2,15.8,3.7
		c4.5,2.4,8,5.6,10.5,9.6V39h26.1v85.1h-26.1v-12.1c-2.5,4-6.1,7.2-10.6,9.6c-4.5,2.4-9.8,3.7-15.8,3.7c-6.9,0-13.2-1.8-18.9-5.4
		c-5.7-3.6-10.2-8.7-13.5-15.4c-3.3-6.7-5-14.4-5-23.1C519.7,72.7,521.3,65,524.6,58.4z M578,66.2c-3.6-3.8-8-5.6-13.2-5.6
		s-9.6,1.9-13.2,5.6c-3.6,3.7-5.4,8.8-5.4,15.3c0,6.5,1.8,11.7,5.4,15.5c3.6,3.8,8,5.7,13.2,5.7s9.6-1.9,13.2-5.6
		c3.6-3.8,5.4-8.9,5.4-15.4C583.5,75.1,581.6,70,578,66.2z"/>
</g>
</svg>
