<?xml version="1.0" encoding="utf-8"?>
<!-- Generator: Adobe Illustrator 24.1.0, SVG Export Plug-In . SVG Version: 6.00 Build 0)  -->
<svg version="1.1" id="Layer_1" xmlns="http://www.w3.org/2000/svg" xmlns:xlink="http://www.w3.org/1999/xlink" x="0px" y="0px"
	 viewBox="0 0 615 180" style="enable-background:new 0 0 615 180;" xml:space="preserve">
<style type="text/css">
	.st0{fill:#D62828;}
</style>
<g id="Layer_1_1_">
</g>
<g>
	<path class="st0" d="M11.4,166.4c3.3-0.2,5.4-1.1,6.4-2.5c1-1.4,1.5-4.1,1.6-8.1c0.2-2.5,0.4-5.4,0.5-8.5c0.1-3.1,0.2-6.2,0.4-9.4
		c0.1-3.2,0.2-6.1,0.2-8.8V79.3c0-4.2-0.6-7.1-1.8-8.5c-1.2-1.5-3.6-2.2-7.1-2.2H9.1l-0.7-1.1l1.1-11.4c6.2-0.8,12.1-1.8,17.8-2.7
		c5.7-1,12.2-2.1,19.4-3.5l1.8,2c-1.1,5.2-1.8,9.3-2,12.2l0.7,0.5c4.5-4.6,8.1-8.1,11-10.4c2.8-2.4,4.8-3.5,5.7-3.5
		c7.4,0,13.8,1.7,19.3,5.1c5.5,3.4,9.7,8.1,12.7,14.2c3,6.1,4.5,13.1,4.5,21.3c0,7.5-1.2,14.2-3.5,20c-2.4,5.8-5.7,10.8-10.1,14.8
		c-4.4,4.1-9.6,7.1-15.7,9.3c-6.1,2.1-12.9,3.2-20.3,3.2c-0.6,0-1.3-0.1-2.1-0.2c-0.8-0.1-1.8-0.2-3-0.2c0,2.4,0,5,0,7.7
		c0,2.7,0,5.4,0,8.1c0,4.2,0.3,7.2,0.8,9c0.5,1.8,2.1,2.6,4.8,2.6c1.5,0,3.1-0.1,4.8-0.2c1.8-0.1,2.8-0.2,3-0.2l0.5,0.7l-2.2,13.3
		c-0.5,0-1.7,0-3.5-0.1c-1.9-0.1-4.1-0.1-6.5-0.2c-2.5-0.1-5-0.1-7.6-0.2c-2.6-0.1-4.9-0.1-6.8-0.1c-3.3,0-6.7,0.1-10.4,0.2
		c-3.6,0.1-8,0.4-13.1,0.9L11.4,166.4z M58,120.9c4.6,0,8.2-1.9,10.7-5.7c2.5-3.8,3.8-9.4,3.8-16.8c0-5.9-0.6-10.9-1.7-14.9
		c-1.2-4-2.8-7-5.1-9.1c-2.2-2.1-4.9-3.1-8.1-3.1c-1.5,0-3.1,0.3-4.9,1c-1.8,0.7-3.5,1.5-5.1,2.6c-0.1,4.6-0.3,9.5-0.5,14.8
		c-0.2,5.3-0.3,10.4-0.4,15.4c-0.1,5-0.1,9.5-0.1,13.6c0.7,0.4,2.1,0.8,4.3,1.4C53.1,120.7,55.4,120.9,58,120.9z"/>
	<path class="st0" d="M174.6,138.9c-5.6,0-10-1.2-13.4-3.5c-3.3-2.4-5.2-5.7-5.7-10.1l-1.8-0.7c-2.2,2.2-4.5,4.3-7,6.5
		c-2.5,2.1-4.8,3.8-7.1,5.2c-2.2,1.3-4.3,2-6.1,2c-4.7,0-9.1-1.2-13-3.7c-3.9-2.5-7-5.9-9.3-10.2c-2.2-4.3-3.4-9.1-3.4-14.4
		c0-3.9,1-7.2,3.1-10.1c2.1-2.8,4.7-4.6,8-5.4l35.3-7.5v-2.5c0-4.7-1.3-8.4-4-11c-2.7-2.6-6.4-3.9-11.3-3.9c-3.4,0-7.1,0.8-11,2.5
		c-3.9,1.7-7.3,3.6-10.1,5.6l-1.8-0.9l-3.8-12.5c3.9-2.1,8.1-4.2,12.7-6.5c4.6-2.2,9-4.1,13.2-5.6c4.2-1.5,7.3-2.3,9.4-2.3
		c8.1,0,14.6,1.2,19.4,3.5c4.8,2.4,8.2,5.5,10.4,9.3c2.1,3.8,3.2,8,3.2,12.6c0,1.6-0.2,3.9-0.5,7.1c-0.4,3.2-0.8,6.6-1.3,10.3
		c-0.5,3.7-0.9,7.2-1.4,10.4c-0.4,3.2-0.6,5.7-0.6,7.4c0,2.1,0.5,3.7,1.6,5c1.1,1.3,2.5,1.9,4.4,1.9c1.3,0,2.7-0.3,4.2-0.8
		c1.5-0.5,2.6-1.1,3.5-1.5l2.9,4.2c-1.5,2.5-3.2,5.3-5.3,8.2c-2.1,2.9-4.2,5.4-6.5,7.5C179,137,176.8,138.3,174.6,138.9z
		 M142.3,118.2c1.6,0,3.4-0.3,5.5-1c2.1-0.7,4-1.5,5.7-2.5l0.4-16.4l-16.5,4.2c-2.7,0.7-4,2.4-4,5.1c0,3,0.8,5.5,2.5,7.5
		C137.5,117.2,139.6,118.2,142.3,118.2z"/>
	<path class="st0" d="M199.3,166.4c3.3-0.2,5.4-1.1,6.4-2.5c1-1.4,1.5-4.1,1.6-8.1c0.2-2.5,0.4-5.4,0.5-8.5c0.1-3.1,0.2-6.2,0.4-9.4
		c0.1-3.2,0.2-6.1,0.2-8.8V79.3c0-4.2-0.6-7.1-1.8-8.5c-1.2-1.5-3.6-2.2-7.1-2.2H197l-0.7-1.1l1.1-11.4c6.2-0.8,12.1-1.8,17.8-2.7
		c5.7-1,12.2-2.1,19.4-3.5l1.8,2c-1.1,5.2-1.8,9.3-2,12.2l0.7,0.5c4.5-4.6,8.1-8.1,11-10.4c2.8-2.4,4.8-3.5,5.7-3.5
		c7.4,0,13.8,1.7,19.3,5.1c5.5,3.4,9.7,8.1,12.7,14.2c3,6.1,4.5,13.1,4.5,21.3c0,7.5-1.2,14.2-3.5,20c-2.4,5.8-5.7,10.8-10.1,14.8
		c-4.4,4.1-9.6,7.1-15.7,9.3c-6.1,2.1-12.9,3.2-20.3,3.2c-0.6,0-1.3-0.1-2.1-0.2c-0.8-0.1-1.8-0.2-3-0.2c0,2.4,0,5,0,7.7
		c0,2.7,0,5.4,0,8.1c0,4.2,0.3,7.2,0.8,9c0.5,1.8,2.1,2.6,4.8,2.6c1.5,0,3.1-0.1,4.8-0.2c1.8-0.1,2.8-0.2,3-0.2l0.5,0.7l-2.2,13.3
		c-0.5,0-1.7,0-3.5-0.1c-1.9-0.1-4.1-0.1-6.5-0.2c-2.5-0.1-5-0.1-7.6-0.2c-2.6-0.1-4.9-0.1-6.8-0.1c-3.3,0-6.7,0.1-10.4,0.2
		c-3.6,0.1-8,0.4-13.1,0.9L199.3,166.4z M245.9,120.9c4.6,0,8.2-1.9,10.7-5.7c2.5-3.8,3.8-9.4,3.8-16.8c0-5.9-0.6-10.9-1.7-14.9
		c-1.2-4-2.8-7-5.1-9.1c-2.2-2.1-4.9-3.1-8.1-3.1c-1.5,0-3.1,0.3-4.9,1c-1.8,0.7-3.5,1.5-5.1,2.6c-0.1,4.6-0.3,9.5-0.5,14.8
		c-0.2,5.3-0.3,10.4-0.4,15.4c-0.1,5-0.1,9.5-0.1,13.6c0.7,0.4,2.1,0.8,4.3,1.4C241,120.7,243.3,120.9,245.9,120.9z"/>
	<path class="st0" d="M298.7,124.4c3.5-0.2,5.9-1.2,7.3-2.7c1.3-1.6,2-4.4,2-8.4V79.1c0-4.2-0.5-7.1-1.6-8.5
		c-1.1-1.5-3.3-2.2-6.5-2.2c-0.6,0-1.7,0.1-3.3,0.2l-0.9-1.3l1.3-11.1c6.1-1,11.9-1.9,17.6-2.9c5.7-1,12.2-2.1,19.6-3.5l2,1.8
		c-0.6,3.3-1.1,6.2-1.4,8.6c-0.3,2.5-0.6,5-0.8,7.5l1.3,0.7c4-5.7,8.1-10,12.4-12.9c4.3-2.9,8.7-4.4,13.2-4.4c1.7,0,3.9,0.2,6.5,0.7
		l0.7,1.6c-0.6,4.5-1.2,8.5-1.6,12.2c-0.5,3.6-0.9,7.6-1.4,11.9c-0.4,4.3-0.8,8.5-1,12.6l-14,0.9c0-6.3-0.3-10.4-1-12.4
		c-0.7-2-2.1-3-4.3-3c-1.6,0-3.2,0.5-5,1.5c-1.8,1-3.4,2.4-4.8,4.4c-0.2,4.2-0.5,7.9-0.6,11.1c-0.2,3.2-0.4,6.4-0.5,9.6
		c-0.2,3.3-0.3,6.2-0.5,8.6c-0.1,2.5-0.2,4-0.2,4.6c0,2.7,0.5,4.5,1.5,5.6c1,1.1,2.6,1.6,4.9,1.6c1.8,0,5-0.2,9.6-0.7l0.7,1.3
		l-2.2,14.2c-3.6-0.2-6.8-0.4-9.5-0.5c-2.7-0.1-5.6-0.2-8.6-0.3c-3-0.1-5.7-0.2-8-0.2c-3.8,0-7.5,0.1-11.4,0.2
		c-3.8,0.1-8.3,0.4-13.4,0.7L298.7,124.4z"/>
	<path class="st0" d="M374.7,125.1c3.5-0.5,6.1-1.6,7.8-3.4c1.7-1.8,2.5-4.3,2.5-7.7V78.4c0-4-0.6-6.7-1.7-8.2
		c-1.2-1.5-3.3-2.2-6.5-2.2c-0.6,0-2,0.2-4.2,0.7l1.3-12.5c4.7-0.6,9.4-1.3,14-2c4.6-0.7,8.8-1.4,12.5-2.1c3.8-0.7,7.9-1.4,12.4-2.3
		l2,3.5c-0.7,1.3-1.4,3.8-1.9,7.4c-0.5,3.6-1,8.1-1.4,13.6c-0.4,5.5-0.6,11.9-0.8,19.1c-0.2,7.2-0.3,15.1-0.3,23.5
		c0,2.5,0.4,4.3,1.1,5.4c0.7,1,2.1,1.5,4,1.5c1,0,2.6-0.1,4.9-0.4l0.4,0.7l-1.8,13.3c-3.2-0.1-5.9-0.2-8.2-0.4
		c-2.3-0.1-4.7-0.2-7.2-0.3c-2.5-0.1-4.8-0.1-6.8-0.1c-3.2,0-6.6,0.2-10.4,0.5c-3.8,0.3-8.3,0.8-13.6,1.5L374.7,125.1z M396.1,37.5
		c-4.8,0-8.5-1.3-11-4c-2.5-2.7-3.7-6.2-3.7-10.7c0-5,1.5-9,4.5-12c3-3,6.9-4.5,11.7-4.5c4.6,0,8.2,1.3,10.7,4
		c2.5,2.7,3.8,6.3,3.8,10.9c0,5-1.5,8.9-4.4,11.9C404.9,36,401,37.5,396.1,37.5z"/>
	<path class="st0" d="M427.4,124.6c2.4-0.4,4.2-1,5.4-1.8c1.2-0.8,1.9-2.1,2.3-3.7c0.4-1.6,0.5-3.8,0.5-6.6V30.6
		c0-5.7-1.4-9-4.2-9.8c-1.1-0.2-2.4-0.4-4-0.4c-1.6,0-3,0-4.4,0c-0.1-0.4-0.2-0.7-0.3-1c-0.1-0.3-0.2-0.6-0.3-0.8l1.1-10.5
		c4.7-0.6,9.5-1.3,14.4-2c4.9-0.7,9.5-1.4,13.6-2c4.2-0.6,8.9-1.3,14.1-2.2l1.5,4c-0.7,0.8-1.4,3.2-2,7c-0.6,3.8-1.2,9-1.6,15.4
		c-0.5,6.5-0.9,14.2-1.3,23.1c-0.4,8.9-0.6,18.9-0.8,29.9c-0.2,11-0.3,22.9-0.3,35.6c0,2.7,0.4,4.5,1.1,5.5c0.7,1,2,1.5,3.8,1.5
		c0.6,0,1.9-0.1,4-0.2l0.4,1.1l-2.2,12.7c-3-0.2-5.7-0.4-7.9-0.5c-2.2-0.1-4.5-0.2-6.9-0.3c-2.4-0.1-4.5-0.2-6.3-0.2
		c-3.3,0-6.5,0.1-9.8,0.2c-3.3,0.1-7.2,0.4-11.6,0.7L427.4,124.6z M463.2,94.4l0.5-4.9L479,73.1c1.3-1.5,2.2-2.6,2.7-3.5
		c0.5-0.8,0.7-1.7,0.7-2.5c0-1.3-0.7-2.3-2.1-2.8c-1.4-0.5-3.8-0.8-7.2-0.8l-0.5-0.9l1.6-10.9c5.1,0.1,9.5,0.2,13.2,0.3
		c3.7,0.1,7.2,0.1,10.6,0.1c3,0,6.1-0.1,9.3-0.2c3.1-0.1,6.9-0.3,11.3-0.5l0.5,0.9l-1.6,12.5c-3.5,1.5-7,3.5-10.4,6.2
		c-3.4,2.7-6.6,5.5-9.7,8.6s-6.1,6.1-9,9l13.6,23.3c2.4,3.9,5,6.9,7.6,9c2.7,2.1,5.7,3.4,9.1,3.7l0.9,1.8l-1.5,10.9
		c-2.9,0.5-5.4,0.8-7.4,1.1c-2,0.2-3.9,0.5-5.7,0.7c-1.8,0-3.5,0-5.1,0.1c-1.6,0.1-2.8,0-3.8-0.3c-3.6-0.5-6.7-1.8-9.1-3.9
		c-2.4-2.1-4.9-5.6-7.5-10.4L463.2,94.4z"/>
	<path class="st0" d="M587.7,138.9c-5.6,0-10-1.2-13.4-3.5c-3.3-2.4-5.2-5.7-5.7-10.1l-1.8-0.7c-2.2,2.2-4.5,4.3-7,6.5
		c-2.5,2.1-4.8,3.8-7.1,5.2c-2.2,1.3-4.3,2-6.1,2c-4.7,0-9.1-1.2-13-3.7c-3.9-2.5-7-5.9-9.3-10.2c-2.2-4.3-3.4-9.1-3.4-14.4
		c0-3.9,1-7.2,3.1-10.1c2.1-2.8,4.7-4.6,8-5.4l35.3-7.5v-2.5c0-4.7-1.3-8.4-4-11c-2.7-2.6-6.4-3.9-11.3-3.9c-3.4,0-7.1,0.8-11,2.5
		c-3.9,1.7-7.3,3.6-10.1,5.6l-1.8-0.9l-3.8-12.5c3.9-2.1,8.1-4.2,12.7-6.5c4.6-2.2,9-4.1,13.2-5.6c4.2-1.5,7.3-2.3,9.4-2.3
		c8.1,0,14.6,1.2,19.4,3.5c4.8,2.4,8.2,5.5,10.4,9.3c2.1,3.8,3.2,8,3.2,12.6c0,1.6-0.2,3.9-0.5,7.1c-0.4,3.2-0.8,6.6-1.3,10.3
		c-0.5,3.7-0.9,7.2-1.4,10.4c-0.4,3.2-0.6,5.7-0.6,7.4c0,2.1,0.5,3.7,1.6,5c1.1,1.3,2.5,1.9,4.4,1.9c1.3,0,2.7-0.3,4.2-0.8
		c1.5-0.5,2.6-1.1,3.5-1.5l2.9,4.2c-1.5,2.5-3.2,5.3-5.3,8.2c-2.1,2.9-4.2,5.4-6.5,7.5C592.1,137,589.9,138.3,587.7,138.9z
		 M555.3,118.2c1.6,0,3.4-0.3,5.5-1c2.1-0.7,4-1.5,5.7-2.5l0.4-16.4l-16.5,4.2c-2.7,0.7-4,2.4-4,5.1c0,3,0.8,5.5,2.5,7.5
		C550.5,117.2,552.7,118.2,555.3,118.2z"/>
</g>
</svg>
