<?xml version="1.0" encoding="utf-8"?>
<!-- Generator: Adobe Illustrator 24.1.0, SVG Export Plug-In . SVG Version: 6.00 Build 0)  -->
<svg version="1.1" xmlns="http://www.w3.org/2000/svg" xmlns:xlink="http://www.w3.org/1999/xlink" x="0px" y="0px"
	 viewBox="0 0 618.3 180" style="enable-background:new 0 0 618.3 180;" xml:space="preserve">
<style type="text/css">
	.st0{fill:#B52B0B;}
</style>
<g id="Layer_1">
</g>
<g id="Layer_2">
	<g>
		<path class="st0" d="M0,180.2v-4c4.5-1.1,7.6-2.9,9.3-5.4c1.7-2.5,2.5-7,2.5-13.4V62.9c0-6.4-0.8-10.9-2.5-13.4
			c-1.7-2.5-4.8-4.3-9.3-5.4v-4h14.6h17.2v117.3c0,6.4,1.1,10.9,3.4,13.4c2.3,2.5,6.5,4.3,12.6,5.4v4H28H14.6H0z M32.6,132.8h-5
			v-18.2h4.2c0.5,6.1,2.8,11.2,6.7,15.2c3.9,4,8.8,6,14.5,6c7.1,0,12.4-3.7,16-11.1c3.6-7.4,5.4-19.1,5.4-35.1
			c0-16.2-1.9-27.6-5.6-34.4c-3.7-6.8-8.9-10.2-15.4-10.2c-5.6,0-10.5,2.1-14.7,6.4c-4.2,4.3-6.5,10-6.9,17.2l-4.4,0.2V52.5h5.4
			c2.4-4.7,5.8-8.4,10.2-11.3c4.4-2.9,9.9-4.3,16.4-4.3c6.5,0,12.5,1.6,17.9,4.9c5.4,3.3,9.8,8.7,13.1,16.2c3.3,7.5,5,17.3,5,29.3
			c0,11.3-1.5,21.3-4.6,29.7c-3.1,8.5-7.5,15-13.3,19.5c-5.8,4.5-12.6,6.8-20.5,6.8C46.9,143.4,38.8,139.8,32.6,132.8z"/>
		<path class="st0" d="M108,137.1c-4.9-4.2-7.3-9.8-7.3-16.7c0-8.4,3.6-15.9,10.7-22.4c7.1-6.5,15.7-11.6,25.6-15.3
			c9.9-3.7,18.7-5.5,26.1-5.5l0.2,7.4c-6.3,0-12.7,1.3-19.3,3.9c-6.6,2.6-12.1,6.4-16.5,11.4c-4.4,5-6.6,10.8-6.6,17.3
			c0,4.9,1.3,8.9,3.8,11.9c2.5,3,5.7,4.5,9.6,4.5c4.8,0,9.1-2.1,12.8-6.4c3.7-4.3,6.7-9.6,8.9-16.1c2.2-6.5,3.4-12.9,3.5-19.3h3.2
			v25.4h-3c-1.2,4.1-3.3,8.2-6.4,12.2c-3.1,4-6.9,7.3-11.6,10c-4.7,2.7-9.9,4-15.6,4C118.9,143.4,112.9,141.3,108,137.1z
			 M160.8,126.1v-10.6l-1.2-10.4v-39c0-14.3-5.1-21.4-15.4-21.4c-4.3,0-7.5,1-9.6,3.1c-2.1,2.1-4.3,5.1-6.4,9.1
			c-1.7,3.2-3.3,5.5-4.6,7c-1.3,1.5-3.3,2.2-5.8,2.2c-2.8,0-5-1-6.6-2.9c-1.6-1.9-2.4-4.3-2.4-7.1c0-3.6,1.5-6.9,4.4-9.8
			c2.9-2.9,7-5.2,12.1-6.9c5.1-1.7,11-2.5,17.5-2.5c12,0,21.2,2.4,27.4,7.3c6.3,4.9,9.4,12.2,9.4,21.9v54.1c0,5.5,1.4,8.2,4.2,8.2
			c1.6,0,3-0.8,4.1-2.4c1.1-1.6,1.7-3.8,1.7-6.6h1.4c0,7.2-1.5,13-4.5,17.4c-3,4.4-7.3,6.6-12.9,6.6
			C165.1,143.4,160.8,137.6,160.8,126.1z"/>
		<path class="st0" d="M195.4,180.2v-4c4.5-1.1,7.6-2.9,9.3-5.4c1.7-2.5,2.5-7,2.5-13.4V62.9c0-6.4-0.8-10.9-2.5-13.4
			c-1.7-2.5-4.8-4.3-9.3-5.4v-4H210h17.2v117.3c0,6.4,1.1,10.9,3.4,13.4c2.3,2.5,6.5,4.3,12.6,5.4v4h-19.8H210H195.4z M228.1,132.8
			h-5v-18.2h4.2c0.5,6.1,2.8,11.2,6.7,15.2c3.9,4,8.8,6,14.5,6c7.1,0,12.4-3.7,16-11.1c3.6-7.4,5.4-19.1,5.4-35.1
			c0-16.2-1.9-27.6-5.6-34.4c-3.7-6.8-8.9-10.2-15.4-10.2c-5.6,0-10.5,2.1-14.7,6.4c-4.2,4.3-6.5,10-6.9,17.2l-4.4,0.2V52.5h5.4
			c2.4-4.7,5.8-8.4,10.2-11.3c4.4-2.9,9.9-4.3,16.4-4.3c6.5,0,12.5,1.6,17.9,4.9c5.4,3.3,9.8,8.7,13.1,16.2c3.3,7.5,5,17.3,5,29.3
			c0,11.3-1.5,21.3-4.6,29.7c-3.1,8.5-7.5,15-13.3,19.5c-5.8,4.5-12.6,6.8-20.5,6.8C242.3,143.4,234.2,139.8,228.1,132.8z"/>
		<path class="st0" d="M296.3,140.2v-4c4.5-1.1,7.6-2.9,9.3-5.4c1.7-2.5,2.5-7,2.5-13.4V62.9c0-6.4-0.8-10.9-2.5-13.4
			c-1.7-2.5-4.8-4.3-9.3-5.4v-4H311h17.2v77.3c0,6.4,0.8,10.9,2.5,13.4c1.7,2.5,4.8,4.3,9.3,5.4v4h-14.6H311H296.3z M323.8,57.3h5.4
			c2.8-6.8,6.5-11.9,11-15.3c4.5-3.4,9.5-5.1,15-5.1c4.4,0,7.9,1,10.5,3.1c2.6,2.1,3.9,4.9,3.9,8.5c0,2.8-0.8,5.2-2.5,7.1
			c-1.7,1.9-3.8,2.9-6.3,2.9c-1.6,0-3-0.3-4.2-1c-1.2-0.7-2.7-1.7-4.6-3.2c-1.9-1.5-3.4-2.5-4.5-3.1c-1.1-0.6-2.4-0.9-3.9-0.9
			c-3.6,0-6.8,2.3-9.7,6.9c-2.9,4.6-4.8,11.5-5.7,20.7h-4.4V57.3z"/>
		<path class="st0" d="M374.6,140.2v-4c4.5-1.1,7.6-2.9,9.3-5.4c1.7-2.5,2.5-7,2.5-13.4V62.9c0-6.4-0.8-10.9-2.5-13.4
			c-1.7-2.5-4.8-4.3-9.3-5.4v-4h14.6h17.2v77.3c0,6.4,0.8,10.9,2.5,13.4c1.7,2.5,4.8,4.3,9.3,5.4v4h-14.6h-14.4H374.6z M385.7,23.7
			c-2.7-2.7-4.1-6-4.1-9.9c0-3.9,1.4-7.1,4.1-9.8c2.7-2.7,6-4,9.9-4c3.9,0,7.1,1.3,9.8,4c2.7,2.7,4,5.9,4,9.8c0,3.9-1.3,7.2-4,9.9
			c-2.7,2.7-5.9,4.1-9.8,4.1C391.8,27.8,388.5,26.5,385.7,23.7z"/>
		<path class="st0" d="M424.7,140.2v-4c4.5-1.1,7.6-2.9,9.3-5.4c1.7-2.5,2.5-7,2.5-13.4V22.8c0-6.4-0.8-10.9-2.5-13.4
			c-1.7-2.5-4.8-4.3-9.3-5.4V0h14.6h17.2v117.3c0,6.4,0.8,10.9,2.5,13.4c1.7,2.5,4.8,4.3,9.3,5.4v4h-14.6h-14.4H424.7z M453.9,93.9
			l32-35.4c2.9-3.3,4.7-5.9,5.4-7.7c0.7-1.8,0.3-3.2-1.2-4.2c-1.5-1-4.2-1.8-8.2-2.5v-4h19h1.4H517v4c-4.7,1.1-8.6,2.6-11.9,4.6
			c-3.3,2-7,5.3-11.1,10l-40,45.3V93.9z M464.7,84.5l14.4-13.4l24,48.1c2.8,5.6,5.6,9.6,8.3,11.9c2.7,2.3,6.4,4,11.1,5.1v4H508
			h-15.8L464.7,84.5z"/>
		<path class="st0" d="M535.3,137.1c-4.9-4.2-7.3-9.8-7.3-16.7c0-8.4,3.6-15.9,10.7-22.4c7.1-6.5,15.7-11.6,25.6-15.3
			c9.9-3.7,18.7-5.5,26.1-5.5l0.2,7.4c-6.3,0-12.7,1.3-19.3,3.9c-6.6,2.6-12.1,6.4-16.5,11.4c-4.4,5-6.6,10.8-6.6,17.3
			c0,4.9,1.3,8.9,3.8,11.9c2.5,3,5.7,4.5,9.6,4.5c4.8,0,9.1-2.1,12.8-6.4c3.7-4.3,6.7-9.6,8.9-16.1c2.2-6.5,3.4-12.9,3.5-19.3h3.2
			v25.4h-3c-1.2,4.1-3.3,8.2-6.4,12.2c-3.1,4-6.9,7.3-11.6,10c-4.7,2.7-9.9,4-15.6,4C546.2,143.4,540.2,141.3,535.3,137.1z
			 M588.1,126.1v-10.6l-1.2-10.4v-39c0-14.3-5.1-21.4-15.4-21.4c-4.3,0-7.5,1-9.6,3.1c-2.1,2.1-4.3,5.1-6.4,9.1
			c-1.7,3.2-3.3,5.5-4.6,7c-1.3,1.5-3.3,2.2-5.8,2.2c-2.8,0-5-1-6.6-2.9c-1.6-1.9-2.4-4.3-2.4-7.1c0-3.6,1.5-6.9,4.4-9.8
			c2.9-2.9,7-5.2,12.1-6.9c5.1-1.7,11-2.5,17.5-2.5c12,0,21.2,2.4,27.4,7.3c6.3,4.9,9.4,12.2,9.4,21.9v54.1c0,5.5,1.4,8.2,4.2,8.2
			c1.6,0,3-0.8,4.1-2.4c1.1-1.6,1.7-3.8,1.7-6.6h1.4c0,7.2-1.5,13-4.5,17.4c-3,4.4-7.3,6.6-12.9,6.6
			C592.3,143.4,588.1,137.6,588.1,126.1z"/>
	</g>
</g>
</svg>
